<svg width="44" height="48" viewBox="0 0 44 48" fill="none" xmlns="http://www.w3.org/2000/svg">
<path d="M22.025 29.9998C25.375 29.9998 28.1 27.2748 28.1 23.9248C28.1 20.5748 25.375 17.8499 22.025 17.8499C18.675 17.8499 15.95 20.5748 15.95 23.9248C15.95 27.2748 18.675 29.9998 22.025 29.9998Z" stroke="#D1292E" stroke-width="2" stroke-miterlimit="10"/>
<path d="M27.3251 5.62486C27.7751 7.22486 28.825 8.59986 30.25 9.44986C31.675 10.2999 33.35 10.5499 34.95 10.1499C36.125 9.79986 37.4 9.84987 38.55 10.3249C39.7 10.7999 40.6501 11.6499 41.2751 12.7249C41.9001 13.7999 42.125 15.0749 41.95 16.3249C41.775 17.5749 41.175 18.6999 40.275 19.5499C39.125 20.7499 38.4751 22.3749 38.4751 24.0499C38.4751 25.7249 39.125 27.3499 40.275 28.5499C41.175 29.3999 41.75 30.5498 41.95 31.7748C42.125 33.0248 41.9001 34.2748 41.2751 35.3748C40.6501 36.4498 39.7 37.2999 38.55 37.7749C37.4 38.2499 36.15 38.2998 34.95 37.9498C33.35 37.5498 31.6501 37.7749 30.2001 38.6249C28.7751 39.4749 27.7 40.8249 27.25 42.4499C26.925 43.6249 26.225 44.6498 25.275 45.3748C24.325 46.0998 23.15 46.4999 21.95 46.4999C20.75 46.4999 19.6001 46.0998 18.6251 45.3748C17.6751 44.6498 16.975 43.6249 16.65 42.4499C16.2 40.8249 15.125 39.4749 13.7 38.6249C12.275 37.7999 10.5751 37.5498 8.95013 37.9498C7.77513 38.2998 6.49999 38.2249 5.37499 37.7499C4.22499 37.2749 3.2751 36.4249 2.6751 35.3499C2.0751 34.2749 1.82508 32.9998 2.02508 31.7748C2.20008 30.5498 2.80001 29.3999 3.67501 28.5499C4.82501 27.3499 5.47509 25.7249 5.47509 24.0499C5.47509 22.3749 4.82501 20.7499 3.67501 19.5499C2.77501 18.6999 2.20008 17.5499 2.02508 16.3249C1.85008 15.0999 2.0751 13.8249 2.6751 12.7499C3.2751 11.6749 4.22499 10.8249 5.37499 10.3499C6.52499 9.8749 7.77513 9.79986 8.95013 10.1499C10.5501 10.5499 12.275 10.2999 13.7 9.47488C15.125 8.62488 16.2 7.24989 16.65 5.64989C16.95 4.47489 17.6501 3.42488 18.6001 2.67488C19.5501 1.92488 20.75 1.5249 21.95 1.5249C23.15 1.5249 24.3501 1.92488 25.3001 2.67488C26.2501 3.42488 26.95 4.47489 27.25 5.64989L27.3251 5.62486Z" stroke="#D1292E" stroke-width="2" stroke-miterlimit="10" stroke-linecap="round"/>
</svg>
