<svg width="60" height="60" viewBox="0 0 60 60" fill="none" xmlns="http://www.w3.org/2000/svg">
<g clip-path="url(#clip0_4_146)">
<path d="M32.525 39.1001L30.8 39.8251C30.55 39.9251 30.275 39.9751 30.025 39.9751C29.75 39.9751 29.475 39.9251 29.225 39.8251L27.5 39.1001C25.775 38.3751 24.25 37.1751 23.175 35.6251C22.1 34.0751 21.425 32.2751 21.3 30.4001L20.925 25.2251C20.925 24.8001 21 24.375 21.2 24.025C21.425 23.675 21.75 23.3751 22.125 23.2251L28.85 20.275C29.6 19.975 30.45 19.975 31.225 20.275L37.8 23.2001C38.175 23.3751 38.5 23.675 38.725 24.025C38.95 24.4 39.025 24.8001 39 25.2251L38.625 30.4001C38.5 32.2751 37.875 34.0751 36.8 35.6001C35.725 37.1251 34.25 38.3501 32.525 39.1001V39.1001Z" stroke="#D1292E" stroke-width="2" stroke-miterlimit="10" stroke-linecap="round"/>
<path d="M51.95 25C52.3 26.65 52.5 28.325 52.5 30C52.5 35.975 50.125 41.7 45.925 45.9C41.7 50.125 35.975 52.5 30 52.5C25.75 52.5 21.6 51.3 18.025 49.025" stroke="#D1292E" stroke-width="2" stroke-miterlimit="10" stroke-linecap="round"/>
<path d="M8.07499 35.025C7.69999 33.375 7.5 31.7 7.5 30C7.5 24.025 9.875 18.325 14.1 14.1C18.325 9.87504 24.025 7.5 30 7.5C34.2 7.5 38.3 8.67496 41.85 10.9" stroke="#D1292E" stroke-width="2" stroke-miterlimit="10" stroke-linecap="round"/>
<path d="M45.925 19.075C48.7 19.075 50.925 16.85 50.925 14.075C50.925 11.3 48.7 9.07495 45.925 9.07495C43.15 9.07495 40.925 11.3 40.925 14.075C40.925 16.85 43.15 19.075 45.925 19.075Z" stroke="#D1292E" stroke-width="2" stroke-miterlimit="10" stroke-linecap="round"/>
<path d="M14.075 50.925C16.85 50.925 19.075 48.7 19.075 45.925C19.075 43.15 16.85 40.925 14.075 40.925C11.3 40.925 9.07501 43.15 9.07501 45.925C9.07501 48.7 11.3 50.925 14.075 50.925Z" stroke="#D1292E" stroke-width="2" stroke-miterlimit="10" stroke-linecap="round"/>
</g>
<defs>
<clipPath id="clip0_4_146">
<rect width="60" height="60" fill="white"/>
</clipPath>
</defs>
</svg>
